<mxfile host="app.diagrams.net" modified="2024-07-18T16:27:37.495Z" agent="Mozilla/5.0 (Windows NT 10.0; Win64; x64) AppleWebKit/537.36 (KHTML, like Gecko) Chrome/126.0.0.0 Safari/537.36" etag="Q_ZxDav1lz5OVW6IfkLW" version="24.7.1" type="google">
  <diagram name="Page-1" id="f8PdVWmfQzSDmt94tJ4r">
    <mxGraphModel grid="1" page="1" gridSize="10" guides="1" tooltips="1" connect="1" arrows="1" fold="1" pageScale="1" pageWidth="850" pageHeight="1100" math="0" shadow="0">
      <root>
        <mxCell id="0" />
        <mxCell id="1" parent="0" />
        <mxCell id="L--Pg3S424dcwWkvSiVQ-1" value="Plant" style="swimlane;whiteSpace=wrap;html=1;" vertex="1" parent="1">
          <mxGeometry x="243.25" y="460" width="312" height="140" as="geometry" />
        </mxCell>
        <mxCell id="hBz5NREpcHJUgk0jQ8ar-17" value="-species: string&lt;div&gt;-age: int&lt;/div&gt;" style="text;html=1;align=left;verticalAlign=middle;resizable=0;points=[];autosize=1;strokeColor=none;fillColor=none;" vertex="1" parent="L--Pg3S424dcwWkvSiVQ-1">
          <mxGeometry y="20" width="100" height="40" as="geometry" />
        </mxCell>
        <mxCell id="hBz5NREpcHJUgk0jQ8ar-19" value="+getSpecies(): string&lt;div&gt;+setSpecies(species: string)&lt;br&gt;&lt;div&gt;+setAge(amount: int)&lt;/div&gt;&lt;div&gt;+ getAge(): int&lt;/div&gt;&lt;div&gt;+Plant(age: int, species: string)&lt;/div&gt;&lt;/div&gt;" style="text;html=1;align=left;verticalAlign=middle;resizable=0;points=[];autosize=1;strokeColor=none;fillColor=none;" vertex="1" parent="L--Pg3S424dcwWkvSiVQ-1">
          <mxGeometry y="50" width="190" height="90" as="geometry" />
        </mxCell>
        <mxCell id="L--Pg3S424dcwWkvSiVQ-8" style="edgeStyle=orthogonalEdgeStyle;rounded=0;orthogonalLoop=1;jettySize=auto;html=1;exitX=0.5;exitY=1;exitDx=0;exitDy=0;entryX=0.5;entryY=0;entryDx=0;entryDy=0;endArrow=diamond;endFill=0;" edge="1" parent="1" source="L--Pg3S424dcwWkvSiVQ-4" target="L--Pg3S424dcwWkvSiVQ-1">
          <mxGeometry relative="1" as="geometry" />
        </mxCell>
        <mxCell id="L--Pg3S424dcwWkvSiVQ-4" value="Roots" style="swimlane;whiteSpace=wrap;html=1;" vertex="1" parent="1">
          <mxGeometry x="286.5" y="310" width="225.5" height="110" as="geometry" />
        </mxCell>
        <mxCell id="hBz5NREpcHJUgk0jQ8ar-12" value="-nutrientsGathered: int" style="text;html=1;align=left;verticalAlign=middle;resizable=0;points=[];autosize=1;strokeColor=none;fillColor=none;" vertex="1" parent="L--Pg3S424dcwWkvSiVQ-4">
          <mxGeometry y="20" width="140" height="30" as="geometry" />
        </mxCell>
        <mxCell id="hBz5NREpcHJUgk0jQ8ar-13" value="+getNutrientsGathered(): int&lt;div&gt;+setNutrientsGathered(int: amount)&lt;/div&gt;&lt;div&gt;+Roots(nutrientsGathered: int)&lt;/div&gt;" style="text;html=1;align=left;verticalAlign=middle;resizable=0;points=[];autosize=1;strokeColor=none;fillColor=none;" vertex="1" parent="L--Pg3S424dcwWkvSiVQ-4">
          <mxGeometry x="2.75" y="50" width="210" height="60" as="geometry" />
        </mxCell>
        <mxCell id="L--Pg3S424dcwWkvSiVQ-10" style="edgeStyle=orthogonalEdgeStyle;rounded=0;orthogonalLoop=1;jettySize=auto;html=1;exitX=0.5;exitY=1;exitDx=0;exitDy=0;entryX=0.75;entryY=0;entryDx=0;entryDy=0;endArrow=diamond;endFill=0;" edge="1" parent="1" source="L--Pg3S424dcwWkvSiVQ-5" target="L--Pg3S424dcwWkvSiVQ-1">
          <mxGeometry relative="1" as="geometry" />
        </mxCell>
        <mxCell id="L--Pg3S424dcwWkvSiVQ-5" value="Stem" style="swimlane;whiteSpace=wrap;html=1;" vertex="1" parent="1">
          <mxGeometry x="525" y="310" width="227" height="110" as="geometry" />
        </mxCell>
        <mxCell id="hBz5NREpcHJUgk0jQ8ar-15" value="-stemLength: int" style="text;html=1;align=left;verticalAlign=middle;resizable=0;points=[];autosize=1;strokeColor=none;fillColor=none;" vertex="1" parent="L--Pg3S424dcwWkvSiVQ-5">
          <mxGeometry y="20" width="110" height="30" as="geometry" />
        </mxCell>
        <mxCell id="hBz5NREpcHJUgk0jQ8ar-16" value="+getStemLength(): int&lt;div&gt;+setStemLength(int: length)&lt;/div&gt;&lt;div&gt;+Stem(stemLength: int)&lt;/div&gt;" style="text;html=1;align=left;verticalAlign=middle;resizable=0;points=[];autosize=1;strokeColor=none;fillColor=none;" vertex="1" parent="L--Pg3S424dcwWkvSiVQ-5">
          <mxGeometry y="50" width="170" height="60" as="geometry" />
        </mxCell>
        <mxCell id="L--Pg3S424dcwWkvSiVQ-9" style="edgeStyle=orthogonalEdgeStyle;rounded=0;orthogonalLoop=1;jettySize=auto;html=1;exitX=0.5;exitY=1;exitDx=0;exitDy=0;entryX=0.25;entryY=0;entryDx=0;entryDy=0;endArrow=diamond;endFill=0;" edge="1" parent="1" source="L--Pg3S424dcwWkvSiVQ-6" target="L--Pg3S424dcwWkvSiVQ-1">
          <mxGeometry relative="1" as="geometry" />
        </mxCell>
        <mxCell id="L--Pg3S424dcwWkvSiVQ-6" value="Leaves" style="swimlane;whiteSpace=wrap;html=1;" vertex="1" parent="1">
          <mxGeometry x="50" y="310" width="222" height="110" as="geometry" />
        </mxCell>
        <mxCell id="hBz5NREpcHJUgk0jQ8ar-10" value="-wilted: bool" style="text;html=1;align=left;verticalAlign=middle;resizable=0;points=[];autosize=1;strokeColor=none;fillColor=none;" vertex="1" parent="L--Pg3S424dcwWkvSiVQ-6">
          <mxGeometry x="2" y="20" width="90" height="30" as="geometry" />
        </mxCell>
        <mxCell id="hBz5NREpcHJUgk0jQ8ar-11" value="+getReplacementStatus(): bool&lt;div&gt;+setReplacementStatus(bool: Status)&lt;/div&gt;&lt;div&gt;+PlantCell(replacementStatus: bool)&lt;/div&gt;" style="text;html=1;align=left;verticalAlign=middle;resizable=0;points=[];autosize=1;strokeColor=none;fillColor=none;" vertex="1" parent="L--Pg3S424dcwWkvSiVQ-6">
          <mxGeometry x="2" y="50" width="220" height="60" as="geometry" />
        </mxCell>
        <mxCell id="L--Pg3S424dcwWkvSiVQ-11" value="" style="endArrow=none;html=1;rounded=0;entryX=1;entryY=0.5;entryDx=0;entryDy=0;exitX=0;exitY=0.5;exitDx=0;exitDy=0;" edge="1" parent="1" source="L--Pg3S424dcwWkvSiVQ-6" target="L--Pg3S424dcwWkvSiVQ-6">
          <mxGeometry width="50" height="50" relative="1" as="geometry">
            <mxPoint x="50" y="385" as="sourcePoint" />
            <mxPoint x="262" y="360" as="targetPoint" />
          </mxGeometry>
        </mxCell>
        <mxCell id="L--Pg3S424dcwWkvSiVQ-12" value="" style="endArrow=none;html=1;rounded=0;exitX=0;exitY=0.5;exitDx=0;exitDy=0;entryX=1;entryY=0.5;entryDx=0;entryDy=0;elbow=vertical;" edge="1" parent="1" source="L--Pg3S424dcwWkvSiVQ-4" target="L--Pg3S424dcwWkvSiVQ-4">
          <mxGeometry width="50" height="50" relative="1" as="geometry">
            <mxPoint x="362" y="410" as="sourcePoint" />
            <mxPoint x="412" y="360" as="targetPoint" />
          </mxGeometry>
        </mxCell>
        <mxCell id="L--Pg3S424dcwWkvSiVQ-13" value="" style="endArrow=none;html=1;rounded=0;exitX=0;exitY=0.5;exitDx=0;exitDy=0;entryX=1;entryY=0.5;entryDx=0;entryDy=0;" edge="1" parent="1" source="L--Pg3S424dcwWkvSiVQ-5" target="L--Pg3S424dcwWkvSiVQ-5">
          <mxGeometry width="50" height="50" relative="1" as="geometry">
            <mxPoint x="542" y="420" as="sourcePoint" />
            <mxPoint x="592" y="370" as="targetPoint" />
          </mxGeometry>
        </mxCell>
        <mxCell id="L--Pg3S424dcwWkvSiVQ-15" style="edgeStyle=orthogonalEdgeStyle;rounded=0;orthogonalLoop=1;jettySize=auto;html=1;entryX=0.5;entryY=0;entryDx=0;entryDy=0;endArrow=diamond;endFill=0;exitX=0.507;exitY=0.967;exitDx=0;exitDy=0;exitPerimeter=0;" edge="1" parent="1" source="hBz5NREpcHJUgk0jQ8ar-8" target="L--Pg3S424dcwWkvSiVQ-6">
          <mxGeometry relative="1" as="geometry">
            <Array as="points">
              <mxPoint x="398" y="290" />
              <mxPoint x="161" y="290" />
            </Array>
          </mxGeometry>
        </mxCell>
        <mxCell id="L--Pg3S424dcwWkvSiVQ-14" value="PlantCell" style="swimlane;whiteSpace=wrap;html=1;" vertex="1" parent="1">
          <mxGeometry x="286.75" y="180" width="220" height="100" as="geometry" />
        </mxCell>
        <mxCell id="hBz5NREpcHJUgk0jQ8ar-7" value="-needsTobeReplaced: bool&lt;div&gt;&lt;br&gt;&lt;/div&gt;" style="text;html=1;align=left;verticalAlign=middle;resizable=0;points=[];autosize=1;strokeColor=none;fillColor=none;" vertex="1" parent="L--Pg3S424dcwWkvSiVQ-14">
          <mxGeometry x="2.5" y="20" width="170" height="40" as="geometry" />
        </mxCell>
        <mxCell id="hBz5NREpcHJUgk0jQ8ar-8" value="+getReplacementStatus(): bool&lt;div&gt;+setReplacementStatus(bool: Status)&lt;/div&gt;&lt;div&gt;+PlantCell(replacementStatus: bool)&lt;/div&gt;" style="text;html=1;align=left;verticalAlign=middle;resizable=0;points=[];autosize=1;strokeColor=none;fillColor=none;" vertex="1" parent="L--Pg3S424dcwWkvSiVQ-14">
          <mxGeometry y="40" width="220" height="60" as="geometry" />
        </mxCell>
        <mxCell id="L--Pg3S424dcwWkvSiVQ-19" style="edgeStyle=orthogonalEdgeStyle;rounded=0;orthogonalLoop=1;jettySize=auto;html=1;exitX=0.5;exitY=1;exitDx=0;exitDy=0;entryX=1;entryY=0.5;entryDx=0;entryDy=0;endArrow=diamond;endFill=0;" edge="1" parent="1" source="L--Pg3S424dcwWkvSiVQ-16" target="L--Pg3S424dcwWkvSiVQ-14">
          <mxGeometry relative="1" as="geometry" />
        </mxCell>
        <mxCell id="L--Pg3S424dcwWkvSiVQ-16" value="Chloroplast" style="swimlane;whiteSpace=wrap;html=1;" vertex="1" parent="1">
          <mxGeometry x="429.25" y="30" width="225" height="120" as="geometry" />
        </mxCell>
        <mxCell id="hBz5NREpcHJUgk0jQ8ar-5" value="-photosynthesisAmount: int&lt;div&gt;&lt;br&gt;&lt;/div&gt;" style="text;html=1;align=left;verticalAlign=middle;resizable=0;points=[];autosize=1;strokeColor=none;fillColor=none;" vertex="1" parent="L--Pg3S424dcwWkvSiVQ-16">
          <mxGeometry y="20" width="170" height="40" as="geometry" />
        </mxCell>
        <mxCell id="hBz5NREpcHJUgk0jQ8ar-6" value="+getphotsythAmount(): int&lt;div&gt;+setPhotosynthAmount(org: int)&lt;/div&gt;&lt;div&gt;+Chloroplast(photosynthAmount: int)&lt;/div&gt;" style="text;html=1;align=left;verticalAlign=middle;resizable=0;points=[];autosize=1;strokeColor=none;fillColor=none;" vertex="1" parent="L--Pg3S424dcwWkvSiVQ-16">
          <mxGeometry y="55" width="220" height="60" as="geometry" />
        </mxCell>
        <mxCell id="L--Pg3S424dcwWkvSiVQ-18" style="edgeStyle=orthogonalEdgeStyle;rounded=0;orthogonalLoop=1;jettySize=auto;html=1;exitX=0.5;exitY=1;exitDx=0;exitDy=0;entryX=0;entryY=0.5;entryDx=0;entryDy=0;endArrow=diamond;endFill=0;" edge="1" parent="1" source="L--Pg3S424dcwWkvSiVQ-17" target="L--Pg3S424dcwWkvSiVQ-14">
          <mxGeometry relative="1" as="geometry" />
        </mxCell>
        <mxCell id="L--Pg3S424dcwWkvSiVQ-17" value="OtherOrganelles" style="swimlane;whiteSpace=wrap;html=1;startSize=23;" vertex="1" parent="1">
          <mxGeometry x="144.25" y="30" width="220" height="120" as="geometry" />
        </mxCell>
        <mxCell id="hBz5NREpcHJUgk0jQ8ar-2" value="-organelleType: String" style="text;html=1;align=center;verticalAlign=middle;resizable=0;points=[];autosize=1;strokeColor=none;fillColor=none;" vertex="1" parent="L--Pg3S424dcwWkvSiVQ-17">
          <mxGeometry x="-10" y="20" width="140" height="30" as="geometry" />
        </mxCell>
        <mxCell id="hBz5NREpcHJUgk0jQ8ar-3" value="+getOrganelleType(): String&lt;div&gt;+setOrganelleType(org: String)&lt;/div&gt;&lt;div&gt;+OtherOrganelles(name: String)&lt;/div&gt;" style="text;html=1;align=left;verticalAlign=middle;resizable=0;points=[];autosize=1;strokeColor=none;fillColor=none;" vertex="1" parent="L--Pg3S424dcwWkvSiVQ-17">
          <mxGeometry y="55" width="190" height="60" as="geometry" />
        </mxCell>
        <mxCell id="L--Pg3S424dcwWkvSiVQ-21" value="" style="endArrow=none;html=1;rounded=0;exitX=-0.024;exitY=0.75;exitDx=0;exitDy=0;exitPerimeter=0;" edge="1" parent="1" source="hBz5NREpcHJUgk0jQ8ar-7">
          <mxGeometry width="50" height="50" relative="1" as="geometry">
            <mxPoint x="297.25" y="255" as="sourcePoint" />
            <mxPoint x="509.25" y="230" as="targetPoint" />
          </mxGeometry>
        </mxCell>
        <mxCell id="L--Pg3S424dcwWkvSiVQ-22" value="" style="endArrow=none;html=1;rounded=0;entryX=1;entryY=0.5;entryDx=0;entryDy=0;exitX=0;exitY=0.5;exitDx=0;exitDy=0;" edge="1" parent="1" source="L--Pg3S424dcwWkvSiVQ-16" target="L--Pg3S424dcwWkvSiVQ-16">
          <mxGeometry width="50" height="50" relative="1" as="geometry">
            <mxPoint x="429.25" y="140" as="sourcePoint" />
            <mxPoint x="789.25" y="100" as="targetPoint" />
          </mxGeometry>
        </mxCell>
        <mxCell id="L--Pg3S424dcwWkvSiVQ-23" value="" style="endArrow=none;html=1;rounded=0;exitX=0;exitY=0.5;exitDx=0;exitDy=0;entryX=1;entryY=0.5;entryDx=0;entryDy=0;" edge="1" parent="1" source="L--Pg3S424dcwWkvSiVQ-17" target="L--Pg3S424dcwWkvSiVQ-17">
          <mxGeometry width="50" height="50" relative="1" as="geometry">
            <mxPoint x="669.25" y="170" as="sourcePoint" />
            <mxPoint x="719.25" y="120" as="targetPoint" />
          </mxGeometry>
        </mxCell>
        <mxCell id="L--Pg3S424dcwWkvSiVQ-30" style="edgeStyle=orthogonalEdgeStyle;rounded=0;orthogonalLoop=1;jettySize=auto;html=1;exitX=0.5;exitY=0;exitDx=0;exitDy=0;entryX=0.5;entryY=1;entryDx=0;entryDy=0;endArrow=classic;endFill=0;" edge="1" parent="1" source="L--Pg3S424dcwWkvSiVQ-24" target="L--Pg3S424dcwWkvSiVQ-1">
          <mxGeometry relative="1" as="geometry">
            <mxPoint x="396.25" y="620" as="targetPoint" />
            <Array as="points">
              <mxPoint x="175" y="630" />
              <mxPoint x="399" y="630" />
            </Array>
          </mxGeometry>
        </mxCell>
        <mxCell id="L--Pg3S424dcwWkvSiVQ-24" value="Crops" style="swimlane;whiteSpace=wrap;html=1;" vertex="1" parent="1">
          <mxGeometry x="55" y="650" width="240" height="120" as="geometry" />
        </mxCell>
        <mxCell id="hBz5NREpcHJUgk0jQ8ar-23" value="-readyForHarvest: bool" style="text;html=1;align=left;verticalAlign=middle;resizable=0;points=[];autosize=1;strokeColor=none;fillColor=none;" vertex="1" parent="L--Pg3S424dcwWkvSiVQ-24">
          <mxGeometry y="20" width="150" height="30" as="geometry" />
        </mxCell>
        <mxCell id="hBz5NREpcHJUgk0jQ8ar-24" value="+getHarvestStatus(): bool&lt;div&gt;+setHarvestStatus(bool: Status)&lt;/div&gt;&lt;div&gt;+Crops(readyForHarvest: bool)&lt;/div&gt;" style="text;html=1;align=left;verticalAlign=middle;resizable=0;points=[];autosize=1;strokeColor=none;fillColor=none;" vertex="1" parent="L--Pg3S424dcwWkvSiVQ-24">
          <mxGeometry x="-3" y="40" width="190" height="60" as="geometry" />
        </mxCell>
        <mxCell id="L--Pg3S424dcwWkvSiVQ-25" value="" style="endArrow=none;html=1;rounded=0;exitX=0.004;exitY=0.98;exitDx=0;exitDy=0;exitPerimeter=0;" edge="1" parent="1" source="hBz5NREpcHJUgk0jQ8ar-23">
          <mxGeometry width="50" height="50" relative="1" as="geometry">
            <mxPoint x="147" y="540" as="sourcePoint" />
            <mxPoint x="295" y="700" as="targetPoint" />
          </mxGeometry>
        </mxCell>
        <mxCell id="L--Pg3S424dcwWkvSiVQ-31" style="edgeStyle=orthogonalEdgeStyle;rounded=0;orthogonalLoop=1;jettySize=auto;html=1;exitX=0.5;exitY=0;exitDx=0;exitDy=0;endArrow=classic;endFill=0;" edge="1" parent="1" source="L--Pg3S424dcwWkvSiVQ-26">
          <mxGeometry relative="1" as="geometry">
            <mxPoint x="400" y="600" as="targetPoint" />
            <Array as="points">
              <mxPoint x="590" y="630" />
              <mxPoint x="400" y="630" />
            </Array>
          </mxGeometry>
        </mxCell>
        <mxCell id="L--Pg3S424dcwWkvSiVQ-26" value="Tree" style="swimlane;whiteSpace=wrap;html=1;" vertex="1" parent="1">
          <mxGeometry x="470" y="650" width="200" height="110" as="geometry" />
        </mxCell>
        <mxCell id="hBz5NREpcHJUgk0jQ8ar-27" value="-barkColour: string" style="text;html=1;align=left;verticalAlign=middle;resizable=0;points=[];autosize=1;strokeColor=none;fillColor=none;" vertex="1" parent="L--Pg3S424dcwWkvSiVQ-26">
          <mxGeometry y="20" width="120" height="30" as="geometry" />
        </mxCell>
        <mxCell id="hBz5NREpcHJUgk0jQ8ar-28" value="+getBarkColour(): string&lt;div&gt;+setBarkColour(colour: string)&lt;/div&gt;&lt;div&gt;+Tree(barkColour: string)&lt;/div&gt;" style="text;html=1;align=left;verticalAlign=middle;resizable=0;points=[];autosize=1;strokeColor=none;fillColor=none;" vertex="1" parent="L--Pg3S424dcwWkvSiVQ-26">
          <mxGeometry y="50" width="180" height="60" as="geometry" />
        </mxCell>
        <mxCell id="L--Pg3S424dcwWkvSiVQ-27" value="" style="endArrow=none;html=1;rounded=0;entryX=1;entryY=0.5;entryDx=0;entryDy=0;exitX=-0.004;exitY=0.057;exitDx=0;exitDy=0;exitPerimeter=0;" edge="1" parent="L--Pg3S424dcwWkvSiVQ-26" source="hBz5NREpcHJUgk0jQ8ar-28" target="L--Pg3S424dcwWkvSiVQ-26">
          <mxGeometry width="50" height="50" relative="1" as="geometry">
            <mxPoint x="20" y="55" as="sourcePoint" />
            <mxPoint x="93.5" y="-160" as="targetPoint" />
          </mxGeometry>
        </mxCell>
        <mxCell id="L--Pg3S424dcwWkvSiVQ-36" style="edgeStyle=orthogonalEdgeStyle;rounded=0;orthogonalLoop=1;jettySize=auto;html=1;exitX=0.5;exitY=0;exitDx=0;exitDy=0;entryX=0.5;entryY=1;entryDx=0;entryDy=0;endArrow=classic;endFill=0;" edge="1" parent="1" source="L--Pg3S424dcwWkvSiVQ-32" target="L--Pg3S424dcwWkvSiVQ-24">
          <mxGeometry relative="1" as="geometry">
            <mxPoint x="132.5" y="810" as="targetPoint" />
          </mxGeometry>
        </mxCell>
        <mxCell id="L--Pg3S424dcwWkvSiVQ-32" value="Wheat" style="swimlane;whiteSpace=wrap;html=1;" vertex="1" parent="1">
          <mxGeometry y="850" width="165" height="110" as="geometry" />
        </mxCell>
        <mxCell id="hBz5NREpcHJUgk0jQ8ar-31" value="-canMakeDou&lt;span style=&quot;color: rgba(0, 0, 0, 0); font-family: monospace; font-size: 0px;&quot;&gt;%3CmxGraphModel%3E%3Croot%3E%3CmxCell%20id%3D%220%22%2F%3E%3CmxCell%20id%3D%221%22%20parent%3D%220%22%2F%3E%3CmxCell%20id%3D%222%22%20value%3D%22-readyForHarvest%3A%20bool%22%20style%3D%22text%3Bhtml%3D1%3Balign%3Dleft%3BverticalAlign%3Dmiddle%3Bresizable%3D0%3Bpoints%3D%5B%5D%3Bautosize%3D1%3BstrokeColor%3Dnone%3BfillColor%3Dnone%3B%22%20vertex%3D%221%22%20parent%3D%221%22%3E%3CmxGeometry%20x%3D%2255%22%20y%3D%22670%22%20width%3D%22150%22%20height%3D%2230%22%20as%3D%22geometry%22%2F%3E%3C%2FmxCell%3E%3C%2Froot%3E%3C%2FmxGraphModel%3E&lt;/span&gt;gh: bool" style="text;html=1;align=left;verticalAlign=middle;resizable=0;points=[];autosize=1;strokeColor=none;fillColor=none;" vertex="1" parent="L--Pg3S424dcwWkvSiVQ-32">
          <mxGeometry y="20" width="140" height="30" as="geometry" />
        </mxCell>
        <mxCell id="hBz5NREpcHJUgk0jQ8ar-34" value="+getDough(): bool&lt;div&gt;+setDough(bool: Status)&lt;/div&gt;&lt;div&gt;+Wheat(doughable: bool)&lt;/div&gt;" style="text;html=1;align=left;verticalAlign=middle;resizable=0;points=[];autosize=1;strokeColor=none;fillColor=none;" vertex="1" parent="L--Pg3S424dcwWkvSiVQ-32">
          <mxGeometry y="50" width="160" height="60" as="geometry" />
        </mxCell>
        <mxCell id="L--Pg3S424dcwWkvSiVQ-33" value="" style="endArrow=none;html=1;rounded=0;exitX=0;exitY=0.5;exitDx=0;exitDy=0;entryX=1;entryY=0.5;entryDx=0;entryDy=0;" edge="1" parent="1" source="L--Pg3S424dcwWkvSiVQ-32" target="L--Pg3S424dcwWkvSiVQ-32">
          <mxGeometry width="50" height="50" relative="1" as="geometry">
            <mxPoint x="122" y="740" as="sourcePoint" />
            <mxPoint x="172" y="690" as="targetPoint" />
          </mxGeometry>
        </mxCell>
        <mxCell id="L--Pg3S424dcwWkvSiVQ-37" style="edgeStyle=orthogonalEdgeStyle;rounded=0;orthogonalLoop=1;jettySize=auto;html=1;exitX=0.5;exitY=0;exitDx=0;exitDy=0;endArrow=classic;endFill=0;entryX=0.5;entryY=1;entryDx=0;entryDy=0;" edge="1" parent="1" source="L--Pg3S424dcwWkvSiVQ-34" target="L--Pg3S424dcwWkvSiVQ-24">
          <mxGeometry relative="1" as="geometry">
            <mxPoint x="125" y="750" as="targetPoint" />
          </mxGeometry>
        </mxCell>
        <mxCell id="L--Pg3S424dcwWkvSiVQ-34" value="Corn" style="swimlane;whiteSpace=wrap;html=1;" vertex="1" parent="1">
          <mxGeometry x="180" y="850" width="170" height="110" as="geometry" />
        </mxCell>
        <mxCell id="hBz5NREpcHJUgk0jQ8ar-35" value="-kernelCount: int" style="text;html=1;align=left;verticalAlign=middle;resizable=0;points=[];autosize=1;strokeColor=none;fillColor=none;" vertex="1" parent="L--Pg3S424dcwWkvSiVQ-34">
          <mxGeometry y="20" width="110" height="30" as="geometry" />
        </mxCell>
        <mxCell id="hBz5NREpcHJUgk0jQ8ar-36" value="+getKernelNumber(): int&lt;div&gt;+setKernelNumber(int: num)&lt;/div&gt;&lt;div&gt;+Corn(kernels: int)&lt;/div&gt;" style="text;html=1;align=left;verticalAlign=middle;resizable=0;points=[];autosize=1;strokeColor=none;fillColor=none;" vertex="1" parent="L--Pg3S424dcwWkvSiVQ-34">
          <mxGeometry y="50" width="170" height="60" as="geometry" />
        </mxCell>
        <mxCell id="L--Pg3S424dcwWkvSiVQ-35" value="" style="endArrow=none;html=1;rounded=0;exitX=0;exitY=0.5;exitDx=0;exitDy=0;entryX=1;entryY=0.5;entryDx=0;entryDy=0;" edge="1" parent="1" source="L--Pg3S424dcwWkvSiVQ-34" target="L--Pg3S424dcwWkvSiVQ-34">
          <mxGeometry width="50" height="50" relative="1" as="geometry">
            <mxPoint x="282" y="740" as="sourcePoint" />
            <mxPoint x="332" y="690" as="targetPoint" />
          </mxGeometry>
        </mxCell>
        <mxCell id="L--Pg3S424dcwWkvSiVQ-44" style="edgeStyle=orthogonalEdgeStyle;rounded=0;orthogonalLoop=1;jettySize=auto;html=1;exitX=0.5;exitY=0;exitDx=0;exitDy=0;entryX=0.5;entryY=1;entryDx=0;entryDy=0;endArrow=classic;endFill=0;" edge="1" parent="1" source="L--Pg3S424dcwWkvSiVQ-40" target="L--Pg3S424dcwWkvSiVQ-26">
          <mxGeometry relative="1" as="geometry" />
        </mxCell>
        <mxCell id="L--Pg3S424dcwWkvSiVQ-40" value="ConiferousTree" style="swimlane;whiteSpace=wrap;html=1;" vertex="1" parent="1">
          <mxGeometry x="380" y="800" width="180" height="110" as="geometry" />
        </mxCell>
        <mxCell id="hBz5NREpcHJUgk0jQ8ar-37" value="-numberOfCones: int" style="text;html=1;align=left;verticalAlign=middle;resizable=0;points=[];autosize=1;strokeColor=none;fillColor=none;" vertex="1" parent="L--Pg3S424dcwWkvSiVQ-40">
          <mxGeometry y="20" width="130" height="30" as="geometry" />
        </mxCell>
        <mxCell id="hBz5NREpcHJUgk0jQ8ar-38" value="+getConeNumber(): int&lt;div&gt;+setConesNumber(int: num)&lt;/div&gt;&lt;div&gt;+ConefierousTree(cones: int)&lt;/div&gt;" style="text;html=1;align=left;verticalAlign=middle;resizable=0;points=[];autosize=1;strokeColor=none;fillColor=none;" vertex="1" parent="L--Pg3S424dcwWkvSiVQ-40">
          <mxGeometry y="50" width="180" height="60" as="geometry" />
        </mxCell>
        <mxCell id="L--Pg3S424dcwWkvSiVQ-41" value="" style="endArrow=none;html=1;rounded=0;exitX=0;exitY=0.5;exitDx=0;exitDy=0;entryX=1;entryY=0.5;entryDx=0;entryDy=0;" edge="1" parent="1" source="L--Pg3S424dcwWkvSiVQ-40" target="L--Pg3S424dcwWkvSiVQ-40">
          <mxGeometry width="50" height="50" relative="1" as="geometry">
            <mxPoint x="490" y="690" as="sourcePoint" />
            <mxPoint x="540" y="640" as="targetPoint" />
          </mxGeometry>
        </mxCell>
        <mxCell id="L--Pg3S424dcwWkvSiVQ-45" style="edgeStyle=orthogonalEdgeStyle;rounded=0;orthogonalLoop=1;jettySize=auto;html=1;exitX=0.5;exitY=0;exitDx=0;exitDy=0;entryX=0.5;entryY=1;entryDx=0;entryDy=0;endArrow=classic;endFill=0;" edge="1" parent="1" source="L--Pg3S424dcwWkvSiVQ-42" target="L--Pg3S424dcwWkvSiVQ-26">
          <mxGeometry relative="1" as="geometry" />
        </mxCell>
        <mxCell id="L--Pg3S424dcwWkvSiVQ-42" value="DeciduousTree" style="swimlane;whiteSpace=wrap;html=1;" vertex="1" parent="1">
          <mxGeometry x="590" y="800" width="221.25" height="110" as="geometry" />
        </mxCell>
        <mxCell id="hBz5NREpcHJUgk0jQ8ar-39" value="-dormancyLength: int" style="text;html=1;align=left;verticalAlign=middle;resizable=0;points=[];autosize=1;strokeColor=none;fillColor=none;" vertex="1" parent="L--Pg3S424dcwWkvSiVQ-42">
          <mxGeometry x="1.25" y="20" width="140" height="30" as="geometry" />
        </mxCell>
        <mxCell id="hBz5NREpcHJUgk0jQ8ar-40" value="+getDormantLength(): int&lt;div&gt;+setDormancyLength(int: num)&lt;/div&gt;&lt;div&gt;+DeciduousTree(dormantTime: int)&lt;/div&gt;" style="text;html=1;align=left;verticalAlign=middle;resizable=0;points=[];autosize=1;strokeColor=none;fillColor=none;" vertex="1" parent="L--Pg3S424dcwWkvSiVQ-42">
          <mxGeometry x="1.25" y="50" width="210" height="60" as="geometry" />
        </mxCell>
        <mxCell id="L--Pg3S424dcwWkvSiVQ-43" value="" style="endArrow=none;html=1;rounded=0;exitX=0;exitY=0.5;exitDx=0;exitDy=0;entryX=1;entryY=0.5;entryDx=0;entryDy=0;" edge="1" parent="1" source="L--Pg3S424dcwWkvSiVQ-42" target="L--Pg3S424dcwWkvSiVQ-42">
          <mxGeometry width="50" height="50" relative="1" as="geometry">
            <mxPoint x="650" y="690" as="sourcePoint" />
            <mxPoint x="700" y="640" as="targetPoint" />
          </mxGeometry>
        </mxCell>
        <mxCell id="L--Pg3S424dcwWkvSiVQ-51" style="edgeStyle=orthogonalEdgeStyle;rounded=0;orthogonalLoop=1;jettySize=auto;html=1;exitX=0.5;exitY=0;exitDx=0;exitDy=0;entryX=0.5;entryY=1;entryDx=0;entryDy=0;endArrow=classic;endFill=0;" edge="1" parent="1" source="L--Pg3S424dcwWkvSiVQ-46" target="L--Pg3S424dcwWkvSiVQ-40">
          <mxGeometry relative="1" as="geometry" />
        </mxCell>
        <mxCell id="L--Pg3S424dcwWkvSiVQ-46" value="PineTree" style="swimlane;whiteSpace=wrap;html=1;" vertex="1" parent="1">
          <mxGeometry x="280" y="970" width="176.75" height="110" as="geometry" />
        </mxCell>
        <mxCell id="hBz5NREpcHJUgk0jQ8ar-41" value="-pinesPerCluster: int" style="text;html=1;align=left;verticalAlign=middle;resizable=0;points=[];autosize=1;strokeColor=none;fillColor=none;" vertex="1" parent="L--Pg3S424dcwWkvSiVQ-46">
          <mxGeometry x="-0.75" y="20" width="130" height="30" as="geometry" />
        </mxCell>
        <mxCell id="hBz5NREpcHJUgk0jQ8ar-42" value="+getPinesPerCluster(): int&lt;div&gt;+setPinesPerCluster(int: num)&lt;/div&gt;&lt;div&gt;+PineTree(pines: int)&lt;/div&gt;" style="text;html=1;align=left;verticalAlign=middle;resizable=0;points=[];autosize=1;strokeColor=none;fillColor=none;" vertex="1" parent="L--Pg3S424dcwWkvSiVQ-46">
          <mxGeometry x="-3.25" y="50" width="180" height="60" as="geometry" />
        </mxCell>
        <mxCell id="L--Pg3S424dcwWkvSiVQ-47" value="" style="endArrow=none;html=1;rounded=0;exitX=0;exitY=0.5;exitDx=0;exitDy=0;entryX=1;entryY=0.5;entryDx=0;entryDy=0;" edge="1" parent="1" source="L--Pg3S424dcwWkvSiVQ-46" target="L--Pg3S424dcwWkvSiVQ-46">
          <mxGeometry width="50" height="50" relative="1" as="geometry">
            <mxPoint x="422" y="860" as="sourcePoint" />
            <mxPoint x="472" y="810" as="targetPoint" />
          </mxGeometry>
        </mxCell>
        <mxCell id="L--Pg3S424dcwWkvSiVQ-52" style="edgeStyle=orthogonalEdgeStyle;rounded=0;orthogonalLoop=1;jettySize=auto;html=1;exitX=0.5;exitY=0;exitDx=0;exitDy=0;entryX=0.5;entryY=1;entryDx=0;entryDy=0;endArrow=classic;endFill=0;" edge="1" parent="1" source="L--Pg3S424dcwWkvSiVQ-48" target="L--Pg3S424dcwWkvSiVQ-40">
          <mxGeometry relative="1" as="geometry" />
        </mxCell>
        <mxCell id="L--Pg3S424dcwWkvSiVQ-48" value="SpruceTree" style="swimlane;whiteSpace=wrap;html=1;" vertex="1" parent="1">
          <mxGeometry x="470" y="970" width="180" height="110" as="geometry" />
        </mxCell>
        <mxCell id="hBz5NREpcHJUgk0jQ8ar-43" value="-pinesPerBranch: int" style="text;html=1;align=left;verticalAlign=middle;resizable=0;points=[];autosize=1;strokeColor=none;fillColor=none;" vertex="1" parent="L--Pg3S424dcwWkvSiVQ-48">
          <mxGeometry y="20" width="130" height="30" as="geometry" />
        </mxCell>
        <mxCell id="hBz5NREpcHJUgk0jQ8ar-44" value="+getPinesPerBranch(): int&lt;div&gt;+setPinesPerBranch(int: num)&lt;/div&gt;&lt;div&gt;+SpruceTree(pines: int)&lt;/div&gt;" style="text;html=1;align=left;verticalAlign=middle;resizable=0;points=[];autosize=1;strokeColor=none;fillColor=none;" vertex="1" parent="L--Pg3S424dcwWkvSiVQ-48">
          <mxGeometry y="50" width="180" height="60" as="geometry" />
        </mxCell>
        <mxCell id="L--Pg3S424dcwWkvSiVQ-49" value="" style="endArrow=none;html=1;rounded=0;exitX=0;exitY=0.5;exitDx=0;exitDy=0;entryX=1;entryY=0.5;entryDx=0;entryDy=0;" edge="1" parent="1" source="L--Pg3S424dcwWkvSiVQ-48" target="L--Pg3S424dcwWkvSiVQ-48">
          <mxGeometry width="50" height="50" relative="1" as="geometry">
            <mxPoint x="577" y="860" as="sourcePoint" />
            <mxPoint x="627" y="810" as="targetPoint" />
          </mxGeometry>
        </mxCell>
        <mxCell id="L--Pg3S424dcwWkvSiVQ-53" style="edgeStyle=orthogonalEdgeStyle;rounded=0;orthogonalLoop=1;jettySize=auto;html=1;exitX=0.5;exitY=0;exitDx=0;exitDy=0;entryX=0.5;entryY=1;entryDx=0;entryDy=0;endArrow=classic;endFill=0;" edge="1" parent="1" source="L--Pg3S424dcwWkvSiVQ-50" target="L--Pg3S424dcwWkvSiVQ-42">
          <mxGeometry relative="1" as="geometry" />
        </mxCell>
        <mxCell id="L--Pg3S424dcwWkvSiVQ-50" value="OakTree" style="swimlane;whiteSpace=wrap;html=1;" vertex="1" parent="1">
          <mxGeometry x="665" y="970" width="185" height="110" as="geometry" />
        </mxCell>
        <mxCell id="hBz5NREpcHJUgk0jQ8ar-45" value="-leafShape: string" style="text;html=1;align=left;verticalAlign=middle;resizable=0;points=[];autosize=1;strokeColor=none;fillColor=none;" vertex="1" parent="L--Pg3S424dcwWkvSiVQ-50">
          <mxGeometry y="20" width="120" height="30" as="geometry" />
        </mxCell>
        <mxCell id="hBz5NREpcHJUgk0jQ8ar-46" value="+getLeafShape(): string&lt;div&gt;+setLeafSShape(string: shape)&lt;/div&gt;&lt;div&gt;+OakTree(leafShape: string)&lt;/div&gt;" style="text;html=1;align=left;verticalAlign=middle;resizable=0;points=[];autosize=1;strokeColor=none;fillColor=none;" vertex="1" parent="L--Pg3S424dcwWkvSiVQ-50">
          <mxGeometry y="50" width="190" height="60" as="geometry" />
        </mxCell>
        <mxCell id="L--Pg3S424dcwWkvSiVQ-54" value="" style="endArrow=none;html=1;rounded=0;exitX=0;exitY=0.5;exitDx=0;exitDy=0;entryX=1;entryY=0.5;entryDx=0;entryDy=0;" edge="1" parent="1" source="L--Pg3S424dcwWkvSiVQ-50" target="L--Pg3S424dcwWkvSiVQ-50">
          <mxGeometry width="50" height="50" relative="1" as="geometry">
            <mxPoint x="835" y="1010" as="sourcePoint" />
            <mxPoint x="885" y="960" as="targetPoint" />
          </mxGeometry>
        </mxCell>
        <mxCell id="hBz5NREpcHJUgk0jQ8ar-21" value="" style="endArrow=none;html=1;rounded=0;exitX=0.004;exitY=0.078;exitDx=0;exitDy=0;exitPerimeter=0;" edge="1" parent="1" source="hBz5NREpcHJUgk0jQ8ar-19">
          <mxGeometry width="50" height="50" relative="1" as="geometry">
            <mxPoint x="370" y="520" as="sourcePoint" />
            <mxPoint x="550" y="517" as="targetPoint" />
          </mxGeometry>
        </mxCell>
      </root>
    </mxGraphModel>
  </diagram>
</mxfile>
